<mxfile host="65bd71144e" pages="10">
    <diagram id="vCyOIAlgoc7Wq1CX_faU" name="01 - req">
        <mxGraphModel dx="1216" dy="648" grid="1" gridSize="10" guides="1" tooltips="1" connect="1" arrows="1" fold="1" page="1" pageScale="1" pageWidth="1920" pageHeight="1200" math="0" shadow="0">
            <root>
                <mxCell id="0"/>
                <mxCell id="1" parent="0"/>
                <mxCell id="xMzs7WPO1CY8evVwmTqV-1" value="Deployment" style="rounded=0;whiteSpace=wrap;html=1;fillColor=#dae8fc;strokeColor=#6c8ebf;fontStyle=1;fontSize=21;" parent="1" vertex="1">
                    <mxGeometry x="600" y="220" width="540" height="40" as="geometry"/>
                </mxCell>
                <mxCell id="xMzs7WPO1CY8evVwmTqV-2" value="Want to deploy each microfrontend independently (including the container)" style="rounded=0;whiteSpace=wrap;html=1;fontSize=16;strokeColor=#919191;" parent="1" vertex="1">
                    <mxGeometry x="600" y="270" width="540" height="50" as="geometry"/>
                </mxCell>
                <mxCell id="xMzs7WPO1CY8evVwmTqV-3" value="Location of child app remoteEntry.js files must be known at &lt;i&gt;build time&lt;/i&gt;!" style="rounded=0;whiteSpace=wrap;html=1;fontSize=16;strokeColor=#919191;" parent="1" vertex="1">
                    <mxGeometry x="600" y="330" width="540" height="50" as="geometry"/>
                </mxCell>
                <mxCell id="vV9yBIGw1d04av9VRlCn-1" value="Many front-end deployment solutions assume you're deploying a single project - we need something that can handle multiple different ones" style="rounded=0;whiteSpace=wrap;html=1;fontSize=16;strokeColor=#919191;" parent="1" vertex="1">
                    <mxGeometry x="600" y="390" width="540" height="50" as="geometry"/>
                </mxCell>
                <mxCell id="ssS88sv6XRTMBaWqyv_N-1" style="edgeStyle=orthogonalEdgeStyle;rounded=0;orthogonalLoop=1;jettySize=auto;html=1;exitX=0;exitY=0.5;exitDx=0;exitDy=0;entryX=0;entryY=0.5;entryDx=0;entryDy=0;fontSize=20;" parent="1" source="vV9yBIGw1d04av9VRlCn-2" target="xMzs7WPO1CY8evVwmTqV-3" edge="1">
                    <mxGeometry relative="1" as="geometry"/>
                </mxCell>
                <mxCell id="vV9yBIGw1d04av9VRlCn-2" value="&lt;i&gt;At present&lt;/i&gt;, the remoteEntry.js file name is fixed! Need to think about caching issues" style="rounded=0;whiteSpace=wrap;html=1;fontSize=16;strokeColor=#919191;" parent="1" vertex="1">
                    <mxGeometry x="600" y="510" width="540" height="50" as="geometry"/>
                </mxCell>
                <mxCell id="Tnq9-iT43dpOuWAg3TIT-1" value="Probably need a CI/CD pipeline of some sort" style="rounded=0;whiteSpace=wrap;html=1;fontSize=16;strokeColor=#919191;" parent="1" vertex="1">
                    <mxGeometry x="600" y="450" width="540" height="50" as="geometry"/>
                </mxCell>
            </root>
        </mxGraphModel>
    </diagram>
    <diagram id="652ZKpJgVISmRbOSb_WX" name="02 - app">
        <mxGraphModel dx="1216" dy="648" grid="1" gridSize="10" guides="1" tooltips="1" connect="1" arrows="1" fold="1" page="1" pageScale="1" pageWidth="1920" pageHeight="1200" math="0" shadow="0">
            <root>
                <mxCell id="j4RLPBhgPVGQlBYEHknK-0"/>
                <mxCell id="j4RLPBhgPVGQlBYEHknK-1" parent="j4RLPBhgPVGQlBYEHknK-0"/>
                <mxCell id="j4RLPBhgPVGQlBYEHknK-2" value="" style="strokeWidth=1;shadow=0;dashed=0;align=center;html=1;shape=mxgraph.mockup.containers.browserWindow;rSize=0;strokeColor=#666666;strokeColor2=#008cff;strokeColor3=#c4c4c4;mainText=,;recursiveResize=0;fontSize=16;" parent="j4RLPBhgPVGQlBYEHknK-1" vertex="1">
                    <mxGeometry x="960" y="320" width="300" height="320" as="geometry"/>
                </mxCell>
                <mxCell id="j4RLPBhgPVGQlBYEHknK-3" value="Page 1" style="strokeWidth=1;shadow=0;dashed=0;align=center;html=1;shape=mxgraph.mockup.containers.anchor;fontSize=17;fontColor=#666666;align=left;" parent="j4RLPBhgPVGQlBYEHknK-2" vertex="1">
                    <mxGeometry x="60" y="12" width="110" height="26" as="geometry"/>
                </mxCell>
                <mxCell id="j4RLPBhgPVGQlBYEHknK-4" value="app.com" style="strokeWidth=1;shadow=0;dashed=0;align=center;html=1;shape=mxgraph.mockup.containers.anchor;rSize=0;fontSize=17;fontColor=#666666;align=left;" parent="j4RLPBhgPVGQlBYEHknK-2" vertex="1">
                    <mxGeometry x="130" y="60" width="250" height="26" as="geometry"/>
                </mxCell>
                <mxCell id="j4RLPBhgPVGQlBYEHknK-11" value="main.js" style="rounded=0;whiteSpace=wrap;html=1;strokeColor=#919191;fontSize=16;" parent="j4RLPBhgPVGQlBYEHknK-2" vertex="1">
                    <mxGeometry x="50" y="140" width="120" height="40" as="geometry"/>
                </mxCell>
                <mxCell id="j4RLPBhgPVGQlBYEHknK-5" value="Container" style="rounded=0;whiteSpace=wrap;html=1;strokeColor=#6c8ebf;fontSize=16;fillColor=#dae8fc;fontStyle=1" parent="j4RLPBhgPVGQlBYEHknK-1" vertex="1">
                    <mxGeometry x="700" y="380" width="170" height="40" as="geometry"/>
                </mxCell>
                <mxCell id="j4RLPBhgPVGQlBYEHknK-6" value="" style="rounded=0;whiteSpace=wrap;html=1;strokeColor=#6c8ebf;fontSize=16;fillColor=#dae8fc;" parent="j4RLPBhgPVGQlBYEHknK-1" vertex="1">
                    <mxGeometry x="700" y="420" width="170" height="80" as="geometry"/>
                </mxCell>
                <mxCell id="j4RLPBhgPVGQlBYEHknK-9" value="Marketing" style="rounded=0;whiteSpace=wrap;html=1;strokeColor=#82b366;fontSize=16;fillColor=#d5e8d4;fontStyle=1" parent="j4RLPBhgPVGQlBYEHknK-1" vertex="1">
                    <mxGeometry x="700" y="520" width="170" height="40" as="geometry"/>
                </mxCell>
                <mxCell id="j4RLPBhgPVGQlBYEHknK-10" value="" style="rounded=0;whiteSpace=wrap;html=1;strokeColor=#82b366;fontSize=16;fillColor=#d5e8d4;" parent="j4RLPBhgPVGQlBYEHknK-1" vertex="1">
                    <mxGeometry x="700" y="560" width="170" height="80" as="geometry"/>
                </mxCell>
                <mxCell id="j4RLPBhgPVGQlBYEHknK-12" value="remoteEntry.js" style="rounded=0;whiteSpace=wrap;html=1;strokeColor=#919191;fontSize=16;" parent="j4RLPBhgPVGQlBYEHknK-1" vertex="1">
                    <mxGeometry x="725" y="570" width="120" height="40" as="geometry"/>
                </mxCell>
                <mxCell id="iQfM1PscpKapoAJU8guE-0" style="edgeStyle=orthogonalEdgeStyle;rounded=0;orthogonalLoop=1;jettySize=auto;html=1;exitX=0;exitY=0.5;exitDx=0;exitDy=0;entryX=1;entryY=0.5;entryDx=0;entryDy=0;fontSize=20;" parent="j4RLPBhgPVGQlBYEHknK-1" source="j4RLPBhgPVGQlBYEHknK-11" target="j4RLPBhgPVGQlBYEHknK-12" edge="1">
                    <mxGeometry relative="1" as="geometry"/>
                </mxCell>
            </root>
        </mxGraphModel>
    </diagram>
    <diagram id="Ifg40LzjCASbkycGUrzv" name="03 - build">
        <mxGraphModel dx="1216" dy="648" grid="1" gridSize="10" guides="1" tooltips="1" connect="1" arrows="1" fold="1" page="1" pageScale="1" pageWidth="1920" pageHeight="1200" math="0" shadow="0">
            <root>
                <mxCell id="3CYmVLg5SRxJdoxrdzi7-0"/>
                <mxCell id="3CYmVLg5SRxJdoxrdzi7-1" parent="3CYmVLg5SRxJdoxrdzi7-0"/>
                <mxCell id="lFC9ZR45U4bWDrcSnuJp-0" value="Container" style="rounded=0;whiteSpace=wrap;html=1;strokeColor=#6c8ebf;fontSize=16;fillColor=#dae8fc;fontStyle=1" parent="3CYmVLg5SRxJdoxrdzi7-1" vertex="1">
                    <mxGeometry x="480" y="290" width="170" height="40" as="geometry"/>
                </mxCell>
                <mxCell id="lFC9ZR45U4bWDrcSnuJp-6" style="edgeStyle=orthogonalEdgeStyle;rounded=0;orthogonalLoop=1;jettySize=auto;html=1;exitX=1;exitY=0.5;exitDx=0;exitDy=0;fontSize=16;" parent="3CYmVLg5SRxJdoxrdzi7-1" source="lFC9ZR45U4bWDrcSnuJp-1" target="lFC9ZR45U4bWDrcSnuJp-5" edge="1">
                    <mxGeometry relative="1" as="geometry"/>
                </mxCell>
                <mxCell id="lFC9ZR45U4bWDrcSnuJp-1" value="" style="rounded=0;whiteSpace=wrap;html=1;strokeColor=#6c8ebf;fontSize=16;fillColor=#dae8fc;" parent="3CYmVLg5SRxJdoxrdzi7-1" vertex="1">
                    <mxGeometry x="480" y="330" width="170" height="160" as="geometry"/>
                </mxCell>
                <mxCell id="lFC9ZR45U4bWDrcSnuJp-2" value="index.js" style="rounded=0;whiteSpace=wrap;html=1;strokeColor=#919191;fontSize=16;" parent="3CYmVLg5SRxJdoxrdzi7-1" vertex="1">
                    <mxGeometry x="505" y="340" width="120" height="40" as="geometry"/>
                </mxCell>
                <mxCell id="lFC9ZR45U4bWDrcSnuJp-3" value="bootstrap.js" style="rounded=0;whiteSpace=wrap;html=1;strokeColor=#919191;fontSize=16;" parent="3CYmVLg5SRxJdoxrdzi7-1" vertex="1">
                    <mxGeometry x="505" y="390" width="120" height="40" as="geometry"/>
                </mxCell>
                <mxCell id="lFC9ZR45U4bWDrcSnuJp-4" value="&lt;i&gt;dependencies&lt;/i&gt;" style="rounded=0;whiteSpace=wrap;html=1;strokeColor=#919191;fontSize=16;" parent="3CYmVLg5SRxJdoxrdzi7-1" vertex="1">
                    <mxGeometry x="505" y="440" width="120" height="40" as="geometry"/>
                </mxCell>
                <mxCell id="lFC9ZR45U4bWDrcSnuJp-5" value="Webpack" style="rounded=0;whiteSpace=wrap;html=1;strokeColor=#d79b00;fontSize=20;fontStyle=1;fillColor=#ffe6cc;" parent="3CYmVLg5SRxJdoxrdzi7-1" vertex="1">
                    <mxGeometry x="680" y="390" width="120" height="40" as="geometry"/>
                </mxCell>
                <mxCell id="lFC9ZR45U4bWDrcSnuJp-7" value="Deployed App" style="rounded=0;whiteSpace=wrap;html=1;strokeColor=#6c8ebf;fontSize=16;fillColor=#dae8fc;fontStyle=1" parent="3CYmVLg5SRxJdoxrdzi7-1" vertex="1">
                    <mxGeometry x="830" y="310" width="170" height="40" as="geometry"/>
                </mxCell>
                <mxCell id="lFC9ZR45U4bWDrcSnuJp-8" value="" style="rounded=0;whiteSpace=wrap;html=1;strokeColor=#6c8ebf;fontSize=16;fillColor=#dae8fc;fontStyle=1" parent="3CYmVLg5SRxJdoxrdzi7-1" vertex="1">
                    <mxGeometry x="830" y="350" width="170" height="120" as="geometry"/>
                </mxCell>
                <mxCell id="lFC9ZR45U4bWDrcSnuJp-9" value="main.js" style="rounded=0;whiteSpace=wrap;html=1;strokeColor=#919191;fontSize=16;" parent="3CYmVLg5SRxJdoxrdzi7-1" vertex="1">
                    <mxGeometry x="855" y="390" width="120" height="40" as="geometry"/>
                </mxCell>
                <mxCell id="lFC9ZR45U4bWDrcSnuJp-10" style="edgeStyle=orthogonalEdgeStyle;rounded=0;orthogonalLoop=1;jettySize=auto;html=1;exitX=1;exitY=0.5;exitDx=0;exitDy=0;fontSize=20;" parent="3CYmVLg5SRxJdoxrdzi7-1" source="lFC9ZR45U4bWDrcSnuJp-5" target="lFC9ZR45U4bWDrcSnuJp-9" edge="1">
                    <mxGeometry relative="1" as="geometry"/>
                </mxCell>
            </root>
        </mxGraphModel>
    </diagram>
    <diagram id="3GZEh3nlFMXLDs_5H6vN" name="04 - process">
        <mxGraphModel dx="1216" dy="648" grid="1" gridSize="10" guides="1" tooltips="1" connect="1" arrows="1" fold="1" page="1" pageScale="1" pageWidth="1920" pageHeight="1200" math="0" shadow="0">
            <root>
                <mxCell id="hYTAy0KBHSro2BK2jDWX-0"/>
                <mxCell id="hYTAy0KBHSro2BK2jDWX-1" parent="hYTAy0KBHSro2BK2jDWX-0"/>
                <mxCell id="hYTAy0KBHSro2BK2jDWX-2" value="Git Monorepo" style="rounded=0;whiteSpace=wrap;html=1;strokeColor=#6c8ebf;fontSize=20;fillColor=#dae8fc;fontStyle=1" parent="hYTAy0KBHSro2BK2jDWX-1" vertex="1">
                    <mxGeometry x="470" y="440" width="140" height="40" as="geometry"/>
                </mxCell>
                <mxCell id="hYTAy0KBHSro2BK2jDWX-10" style="edgeStyle=orthogonalEdgeStyle;rounded=0;orthogonalLoop=1;jettySize=auto;html=1;exitX=1;exitY=0.5;exitDx=0;exitDy=0;entryX=0;entryY=0.5;entryDx=0;entryDy=0;fontSize=20;" parent="hYTAy0KBHSro2BK2jDWX-1" source="hYTAy0KBHSro2BK2jDWX-3" target="hYTAy0KBHSro2BK2jDWX-9" edge="1">
                    <mxGeometry relative="1" as="geometry"/>
                </mxCell>
                <mxCell id="hYTAy0KBHSro2BK2jDWX-3" value="" style="rounded=0;whiteSpace=wrap;html=1;strokeColor=#6c8ebf;fontSize=20;fillColor=#dae8fc;" parent="hYTAy0KBHSro2BK2jDWX-1" vertex="1">
                    <mxGeometry x="470" y="480" width="140" height="170" as="geometry"/>
                </mxCell>
                <mxCell id="hYTAy0KBHSro2BK2jDWX-4" value="container" style="rounded=0;whiteSpace=wrap;html=1;strokeColor=#919191;fontSize=20;" parent="hYTAy0KBHSro2BK2jDWX-1" vertex="1">
                    <mxGeometry x="480" y="487.5" width="120" height="35" as="geometry"/>
                </mxCell>
                <mxCell id="hYTAy0KBHSro2BK2jDWX-5" value="marketing" style="rounded=0;whiteSpace=wrap;html=1;strokeColor=#919191;fontSize=20;" parent="hYTAy0KBHSro2BK2jDWX-1" vertex="1">
                    <mxGeometry x="480" y="527.5" width="120" height="35" as="geometry"/>
                </mxCell>
                <mxCell id="hYTAy0KBHSro2BK2jDWX-6" value="dashboard" style="rounded=0;whiteSpace=wrap;html=1;strokeColor=#919191;fontSize=20;" parent="hYTAy0KBHSro2BK2jDWX-1" vertex="1">
                    <mxGeometry x="480" y="567.5" width="120" height="35" as="geometry"/>
                </mxCell>
                <mxCell id="hYTAy0KBHSro2BK2jDWX-7" value="auth" style="rounded=0;whiteSpace=wrap;html=1;strokeColor=#919191;fontSize=20;" parent="hYTAy0KBHSro2BK2jDWX-1" vertex="1">
                    <mxGeometry x="480" y="607.5" width="120" height="35" as="geometry"/>
                </mxCell>
                <mxCell id="hYTAy0KBHSro2BK2jDWX-8" value="Github" style="rounded=0;whiteSpace=wrap;html=1;strokeColor=#6c8ebf;fontSize=20;fillColor=#dae8fc;fontStyle=1" parent="hYTAy0KBHSro2BK2jDWX-1" vertex="1">
                    <mxGeometry x="650" y="440" width="180" height="40" as="geometry"/>
                </mxCell>
                <mxCell id="hYTAy0KBHSro2BK2jDWX-9" value="" style="rounded=0;whiteSpace=wrap;html=1;strokeColor=#6c8ebf;fontSize=20;fillColor=#dae8fc;" parent="hYTAy0KBHSro2BK2jDWX-1" vertex="1">
                    <mxGeometry x="650" y="480" width="180" height="170" as="geometry"/>
                </mxCell>
                <mxCell id="hYTAy0KBHSro2BK2jDWX-18" style="edgeStyle=orthogonalEdgeStyle;rounded=0;orthogonalLoop=1;jettySize=auto;html=1;exitX=1;exitY=0.5;exitDx=0;exitDy=0;fontSize=13;" parent="hYTAy0KBHSro2BK2jDWX-1" source="hYTAy0KBHSro2BK2jDWX-11" target="hYTAy0KBHSro2BK2jDWX-17" edge="1">
                    <mxGeometry relative="1" as="geometry"/>
                </mxCell>
                <mxCell id="hYTAy0KBHSro2BK2jDWX-11" value="&lt;i style=&quot;font-size: 13px;&quot;&gt;Did container change?&lt;/i&gt;" style="rounded=0;whiteSpace=wrap;html=1;strokeColor=#919191;fontSize=13;" parent="hYTAy0KBHSro2BK2jDWX-1" vertex="1">
                    <mxGeometry x="660" y="487.5" width="160" height="35" as="geometry"/>
                </mxCell>
                <mxCell id="hYTAy0KBHSro2BK2jDWX-12" value="&lt;i style=&quot;font-size: 13px&quot;&gt;Did marketing change?&lt;/i&gt;" style="rounded=0;whiteSpace=wrap;html=1;strokeColor=#919191;fontSize=13;" parent="hYTAy0KBHSro2BK2jDWX-1" vertex="1">
                    <mxGeometry x="660" y="527.5" width="160" height="35" as="geometry"/>
                </mxCell>
                <mxCell id="hYTAy0KBHSro2BK2jDWX-13" value="&lt;i style=&quot;font-size: 13px&quot;&gt;Did dashboard change?&lt;/i&gt;" style="rounded=0;whiteSpace=wrap;html=1;strokeColor=#919191;fontSize=13;" parent="hYTAy0KBHSro2BK2jDWX-1" vertex="1">
                    <mxGeometry x="660" y="567.5" width="160" height="35" as="geometry"/>
                </mxCell>
                <mxCell id="hYTAy0KBHSro2BK2jDWX-14" value="&lt;i style=&quot;font-size: 13px&quot;&gt;Did auth change?&lt;/i&gt;" style="rounded=0;whiteSpace=wrap;html=1;strokeColor=#919191;fontSize=13;" parent="hYTAy0KBHSro2BK2jDWX-1" vertex="1">
                    <mxGeometry x="660" y="607.5" width="160" height="35" as="geometry"/>
                </mxCell>
                <mxCell id="hYTAy0KBHSro2BK2jDWX-20" style="edgeStyle=orthogonalEdgeStyle;rounded=0;orthogonalLoop=1;jettySize=auto;html=1;exitX=1;exitY=0.5;exitDx=0;exitDy=0;fontSize=13;" parent="hYTAy0KBHSro2BK2jDWX-1" source="hYTAy0KBHSro2BK2jDWX-17" target="hYTAy0KBHSro2BK2jDWX-19" edge="1">
                    <mxGeometry relative="1" as="geometry"/>
                </mxCell>
                <mxCell id="hYTAy0KBHSro2BK2jDWX-17" value="&lt;i style=&quot;font-size: 13px&quot;&gt;Build a production version of container with webpack&lt;/i&gt;" style="rounded=0;whiteSpace=wrap;html=1;strokeColor=#919191;fontSize=13;" parent="hYTAy0KBHSro2BK2jDWX-1" vertex="1">
                    <mxGeometry x="850" y="487.5" width="190" height="35" as="geometry"/>
                </mxCell>
                <mxCell id="hYTAy0KBHSro2BK2jDWX-19" value="&lt;i style=&quot;font-size: 13px&quot;&gt;Upload the files to Amazon S3&lt;/i&gt;" style="rounded=0;whiteSpace=wrap;html=1;strokeColor=#919191;fontSize=13;" parent="hYTAy0KBHSro2BK2jDWX-1" vertex="1">
                    <mxGeometry x="1060" y="487.5" width="190" height="35" as="geometry"/>
                </mxCell>
                <mxCell id="hYTAy0KBHSro2BK2jDWX-21" style="edgeStyle=orthogonalEdgeStyle;rounded=0;orthogonalLoop=1;jettySize=auto;html=1;exitX=1;exitY=0.5;exitDx=0;exitDy=0;fontSize=13;" parent="hYTAy0KBHSro2BK2jDWX-1" target="hYTAy0KBHSro2BK2jDWX-23" edge="1">
                    <mxGeometry relative="1" as="geometry">
                        <mxPoint x="820" y="545" as="sourcePoint"/>
                    </mxGeometry>
                </mxCell>
                <mxCell id="hYTAy0KBHSro2BK2jDWX-22" style="edgeStyle=orthogonalEdgeStyle;rounded=0;orthogonalLoop=1;jettySize=auto;html=1;exitX=1;exitY=0.5;exitDx=0;exitDy=0;fontSize=13;" parent="hYTAy0KBHSro2BK2jDWX-1" source="hYTAy0KBHSro2BK2jDWX-23" target="hYTAy0KBHSro2BK2jDWX-24" edge="1">
                    <mxGeometry relative="1" as="geometry"/>
                </mxCell>
                <mxCell id="hYTAy0KBHSro2BK2jDWX-23" value="&lt;i style=&quot;font-size: 13px&quot;&gt;Build a production version of the marketing with webpack&lt;/i&gt;" style="rounded=0;whiteSpace=wrap;html=1;strokeColor=#919191;fontSize=13;" parent="hYTAy0KBHSro2BK2jDWX-1" vertex="1">
                    <mxGeometry x="850" y="527.5" width="190" height="35" as="geometry"/>
                </mxCell>
                <mxCell id="hYTAy0KBHSro2BK2jDWX-24" value="&lt;i style=&quot;font-size: 13px&quot;&gt;Upload the files to Amazon S3&lt;/i&gt;" style="rounded=0;whiteSpace=wrap;html=1;strokeColor=#919191;fontSize=13;" parent="hYTAy0KBHSro2BK2jDWX-1" vertex="1">
                    <mxGeometry x="1060" y="527.5" width="190" height="35" as="geometry"/>
                </mxCell>
                <mxCell id="hYTAy0KBHSro2BK2jDWX-25" style="edgeStyle=orthogonalEdgeStyle;rounded=0;orthogonalLoop=1;jettySize=auto;html=1;exitX=1;exitY=0.5;exitDx=0;exitDy=0;fontSize=13;" parent="hYTAy0KBHSro2BK2jDWX-1" target="hYTAy0KBHSro2BK2jDWX-27" edge="1">
                    <mxGeometry relative="1" as="geometry">
                        <mxPoint x="820" y="584.9999999999999" as="sourcePoint"/>
                    </mxGeometry>
                </mxCell>
                <mxCell id="hYTAy0KBHSro2BK2jDWX-26" style="edgeStyle=orthogonalEdgeStyle;rounded=0;orthogonalLoop=1;jettySize=auto;html=1;exitX=1;exitY=0.5;exitDx=0;exitDy=0;fontSize=13;" parent="hYTAy0KBHSro2BK2jDWX-1" source="hYTAy0KBHSro2BK2jDWX-27" target="hYTAy0KBHSro2BK2jDWX-28" edge="1">
                    <mxGeometry relative="1" as="geometry"/>
                </mxCell>
                <mxCell id="hYTAy0KBHSro2BK2jDWX-27" value="&lt;i style=&quot;font-size: 13px&quot;&gt;Build a production version of the dashboard with webpack&lt;/i&gt;" style="rounded=0;whiteSpace=wrap;html=1;strokeColor=#919191;fontSize=13;" parent="hYTAy0KBHSro2BK2jDWX-1" vertex="1">
                    <mxGeometry x="850" y="567.5" width="190" height="35" as="geometry"/>
                </mxCell>
                <mxCell id="hYTAy0KBHSro2BK2jDWX-28" value="&lt;i style=&quot;font-size: 13px&quot;&gt;Upload the files to Amazon S3&lt;/i&gt;" style="rounded=0;whiteSpace=wrap;html=1;strokeColor=#919191;fontSize=13;" parent="hYTAy0KBHSro2BK2jDWX-1" vertex="1">
                    <mxGeometry x="1060" y="567.5" width="190" height="35" as="geometry"/>
                </mxCell>
                <mxCell id="hYTAy0KBHSro2BK2jDWX-29" style="edgeStyle=orthogonalEdgeStyle;rounded=0;orthogonalLoop=1;jettySize=auto;html=1;exitX=1;exitY=0.5;exitDx=0;exitDy=0;fontSize=13;" parent="hYTAy0KBHSro2BK2jDWX-1" target="hYTAy0KBHSro2BK2jDWX-31" edge="1">
                    <mxGeometry relative="1" as="geometry">
                        <mxPoint x="820" y="625" as="sourcePoint"/>
                    </mxGeometry>
                </mxCell>
                <mxCell id="hYTAy0KBHSro2BK2jDWX-30" style="edgeStyle=orthogonalEdgeStyle;rounded=0;orthogonalLoop=1;jettySize=auto;html=1;exitX=1;exitY=0.5;exitDx=0;exitDy=0;fontSize=13;" parent="hYTAy0KBHSro2BK2jDWX-1" source="hYTAy0KBHSro2BK2jDWX-31" target="hYTAy0KBHSro2BK2jDWX-32" edge="1">
                    <mxGeometry relative="1" as="geometry"/>
                </mxCell>
                <mxCell id="hYTAy0KBHSro2BK2jDWX-31" value="&lt;i style=&quot;font-size: 13px&quot;&gt;Build a production version of the auth with webpack&lt;/i&gt;" style="rounded=0;whiteSpace=wrap;html=1;strokeColor=#919191;fontSize=13;" parent="hYTAy0KBHSro2BK2jDWX-1" vertex="1">
                    <mxGeometry x="850" y="607.5" width="190" height="35" as="geometry"/>
                </mxCell>
                <mxCell id="hYTAy0KBHSro2BK2jDWX-32" value="&lt;i style=&quot;font-size: 13px&quot;&gt;Upload the files to Amazon S3&lt;/i&gt;" style="rounded=0;whiteSpace=wrap;html=1;strokeColor=#919191;fontSize=13;" parent="hYTAy0KBHSro2BK2jDWX-1" vertex="1">
                    <mxGeometry x="1060" y="607.5" width="190" height="35" as="geometry"/>
                </mxCell>
                <mxCell id="hYTAy0KBHSro2BK2jDWX-33" value="Note: this will work identically if you decide to create a separate repo for each sub project" style="rounded=0;whiteSpace=wrap;html=1;strokeColor=#b85450;fontSize=9;fillColor=#f8cecc;fontStyle=2" parent="hYTAy0KBHSro2BK2jDWX-1" vertex="1">
                    <mxGeometry x="470" y="380" width="140" height="40" as="geometry"/>
                </mxCell>
            </root>
        </mxGraphModel>
    </diagram>
    <diagram id="CM-m3QCm37WWpOi0vvZc" name="05 - s3">
        <mxGraphModel dx="1080" dy="648" grid="1" gridSize="10" guides="1" tooltips="1" connect="1" arrows="1" fold="1" page="1" pageScale="1" pageWidth="1920" pageHeight="1200" math="0" shadow="0">
            <root>
                <mxCell id="aI2a5WQzDq6AdwkirXS6-0"/>
                <mxCell id="aI2a5WQzDq6AdwkirXS6-1" parent="aI2a5WQzDq6AdwkirXS6-0"/>
                <mxCell id="xYA1REYrUeGJPjW39m-4-0" value="Amazon S3" style="rounded=0;whiteSpace=wrap;html=1;strokeColor=#6c8ebf;fontSize=18;fillColor=#dae8fc;fontStyle=1" parent="aI2a5WQzDq6AdwkirXS6-1" vertex="1">
                    <mxGeometry x="570" y="340" width="190" height="30" as="geometry"/>
                </mxCell>
                <mxCell id="xYA1REYrUeGJPjW39m-4-1" value="" style="rounded=0;whiteSpace=wrap;html=1;strokeColor=#6c8ebf;fontSize=18;fillColor=#dae8fc;fontStyle=1" parent="aI2a5WQzDq6AdwkirXS6-1" vertex="1">
                    <mxGeometry x="570" y="370" width="190" height="200" as="geometry"/>
                </mxCell>
                <mxCell id="xYA1REYrUeGJPjW39m-4-2" value="container" style="rounded=0;whiteSpace=wrap;html=1;strokeColor=#666666;fontSize=18;fillColor=#f5f5f5;fontColor=#333333;" parent="aI2a5WQzDq6AdwkirXS6-1" vertex="1">
                    <mxGeometry x="580" y="380" width="170" height="30" as="geometry"/>
                </mxCell>
                <mxCell id="xYA1REYrUeGJPjW39m-4-3" value="" style="rounded=0;whiteSpace=wrap;html=1;strokeColor=#666666;fontSize=18;fillColor=#f5f5f5;fontColor=#333333;" parent="aI2a5WQzDq6AdwkirXS6-1" vertex="1">
                    <mxGeometry x="580" y="410" width="170" height="50" as="geometry"/>
                </mxCell>
                <mxCell id="xYA1REYrUeGJPjW39m-4-4" value="main.js" style="shape=document;whiteSpace=wrap;html=1;boundedLbl=1;strokeColor=#919191;fontSize=14;size=0.125;" parent="aI2a5WQzDq6AdwkirXS6-1" vertex="1">
                    <mxGeometry x="590" y="415" width="70" height="40" as="geometry"/>
                </mxCell>
                <mxCell id="xYA1REYrUeGJPjW39m-4-5" value="marketing" style="rounded=0;whiteSpace=wrap;html=1;strokeColor=#666666;fontSize=18;fillColor=#f5f5f5;fontColor=#333333;" parent="aI2a5WQzDq6AdwkirXS6-1" vertex="1">
                    <mxGeometry x="580" y="480" width="170" height="30" as="geometry"/>
                </mxCell>
                <mxCell id="xYA1REYrUeGJPjW39m-4-6" value="" style="rounded=0;whiteSpace=wrap;html=1;strokeColor=#666666;fontSize=18;fillColor=#f5f5f5;fontColor=#333333;" parent="aI2a5WQzDq6AdwkirXS6-1" vertex="1">
                    <mxGeometry x="580" y="510" width="170" height="50" as="geometry"/>
                </mxCell>
                <mxCell id="xYA1REYrUeGJPjW39m-4-7" value="main.js" style="shape=document;whiteSpace=wrap;html=1;boundedLbl=1;strokeColor=#919191;fontSize=14;size=0.125;" parent="aI2a5WQzDq6AdwkirXS6-1" vertex="1">
                    <mxGeometry x="620" y="515" width="90" height="40" as="geometry"/>
                </mxCell>
                <mxCell id="xYA1REYrUeGJPjW39m-4-9" value="index.html" style="shape=document;whiteSpace=wrap;html=1;boundedLbl=1;strokeColor=#919191;fontSize=14;size=0.125;" parent="aI2a5WQzDq6AdwkirXS6-1" vertex="1">
                    <mxGeometry x="670" y="415" width="70" height="40" as="geometry"/>
                </mxCell>
                <mxCell id="xYA1REYrUeGJPjW39m-4-11" style="edgeStyle=orthogonalEdgeStyle;rounded=0;orthogonalLoop=1;jettySize=auto;html=1;exitX=0;exitY=0.5;exitDx=0;exitDy=0;entryX=1;entryY=0.5;entryDx=0;entryDy=0;fontSize=14;" parent="aI2a5WQzDq6AdwkirXS6-1" source="xYA1REYrUeGJPjW39m-4-10" target="xYA1REYrUeGJPjW39m-4-1" edge="1">
                    <mxGeometry relative="1" as="geometry"/>
                </mxCell>
                <mxCell id="xYA1REYrUeGJPjW39m-4-10" value="Amazon CloudFront&lt;br&gt;(CDN)" style="rounded=0;whiteSpace=wrap;html=1;strokeColor=#82b366;fontSize=18;fillColor=#d5e8d4;fontStyle=1" parent="aI2a5WQzDq6AdwkirXS6-1" vertex="1">
                    <mxGeometry x="800" y="410" width="110" height="120" as="geometry"/>
                </mxCell>
                <mxCell id="xYA1REYrUeGJPjW39m-4-12" value="" style="strokeWidth=1;shadow=0;dashed=0;align=center;html=1;shape=mxgraph.mockup.containers.browserWindow;rSize=0;strokeColor=#666666;strokeColor2=#008cff;strokeColor3=#c4c4c4;mainText=,;recursiveResize=0;fontSize=14;" parent="aI2a5WQzDq6AdwkirXS6-1" vertex="1">
                    <mxGeometry x="950" y="340" width="260" height="230" as="geometry"/>
                </mxCell>
                <mxCell id="xYA1REYrUeGJPjW39m-4-13" value="Page 1" style="strokeWidth=1;shadow=0;dashed=0;align=center;html=1;shape=mxgraph.mockup.containers.anchor;fontSize=17;fontColor=#666666;align=left;" parent="xYA1REYrUeGJPjW39m-4-12" vertex="1">
                    <mxGeometry x="60" y="12" width="110" height="26" as="geometry"/>
                </mxCell>
                <mxCell id="xYA1REYrUeGJPjW39m-4-14" value="app.com" style="strokeWidth=1;shadow=0;dashed=0;align=center;html=1;shape=mxgraph.mockup.containers.anchor;rSize=0;fontSize=17;fontColor=#666666;align=left;" parent="xYA1REYrUeGJPjW39m-4-12" vertex="1">
                    <mxGeometry x="130" y="60" width="90" height="26" as="geometry"/>
                </mxCell>
                <mxCell id="0qLIuQf8_sEGOXPqUibq-0" value="index.html" style="shape=document;whiteSpace=wrap;html=1;boundedLbl=1;strokeColor=#919191;fontSize=14;size=0.125;" parent="xYA1REYrUeGJPjW39m-4-12" vertex="1">
                    <mxGeometry x="30" y="120" width="70" height="40" as="geometry"/>
                </mxCell>
                <mxCell id="0qLIuQf8_sEGOXPqUibq-1" value="main.js" style="shape=document;whiteSpace=wrap;html=1;boundedLbl=1;strokeColor=#919191;fontSize=14;size=0.125;" parent="xYA1REYrUeGJPjW39m-4-12" vertex="1">
                    <mxGeometry x="30" y="160" width="70" height="40" as="geometry"/>
                </mxCell>
                <mxCell id="0qLIuQf8_sEGOXPqUibq-2" value="remoteEntry" style="shape=document;whiteSpace=wrap;html=1;boundedLbl=1;strokeColor=#919191;fontSize=14;size=0.125;" parent="xYA1REYrUeGJPjW39m-4-12" vertex="1">
                    <mxGeometry x="110" y="120" width="90" height="40" as="geometry"/>
                </mxCell>
                <mxCell id="0qLIuQf8_sEGOXPqUibq-3" value="main.js" style="shape=document;whiteSpace=wrap;html=1;boundedLbl=1;strokeColor=#919191;fontSize=14;size=0.125;" parent="xYA1REYrUeGJPjW39m-4-12" vertex="1">
                    <mxGeometry x="110" y="160" width="90" height="40" as="geometry"/>
                </mxCell>
                <mxCell id="xYA1REYrUeGJPjW39m-4-15" style="edgeStyle=orthogonalEdgeStyle;rounded=0;orthogonalLoop=1;jettySize=auto;html=1;exitX=0;exitY=0.5;exitDx=0;exitDy=0;entryX=1;entryY=0.5;entryDx=0;entryDy=0;fontSize=14;" parent="aI2a5WQzDq6AdwkirXS6-1" edge="1">
                    <mxGeometry relative="1" as="geometry">
                        <mxPoint x="950" y="469.76" as="sourcePoint"/>
                        <mxPoint x="910" y="469.76" as="targetPoint"/>
                    </mxGeometry>
                </mxCell>
            </root>
        </mxGraphModel>
    </diagram>
    <diagram id="1qBtK0xGjkbZG8Px4zkc" name="06 - cost">
        <mxGraphModel dx="1216" dy="648" grid="1" gridSize="10" guides="1" tooltips="1" connect="1" arrows="1" fold="1" page="1" pageScale="1" pageWidth="1920" pageHeight="1200" math="0" shadow="0">
            <root>
                <mxCell id="nzwPwrHAnZGIBoWtu1ZI-0"/>
                <mxCell id="nzwPwrHAnZGIBoWtu1ZI-1" parent="nzwPwrHAnZGIBoWtu1ZI-0"/>
                <mxCell id="nzwPwrHAnZGIBoWtu1ZI-4" style="edgeStyle=orthogonalEdgeStyle;rounded=0;orthogonalLoop=1;jettySize=auto;html=1;exitX=0.5;exitY=1;exitDx=0;exitDy=0;fontSize=17;" parent="nzwPwrHAnZGIBoWtu1ZI-1" source="nzwPwrHAnZGIBoWtu1ZI-2" target="nzwPwrHAnZGIBoWtu1ZI-3" edge="1">
                    <mxGeometry relative="1" as="geometry"/>
                </mxCell>
                <mxCell id="nzwPwrHAnZGIBoWtu1ZI-2" value="You will need an AWS account" style="rounded=0;whiteSpace=wrap;html=1;strokeColor=#b85450;fontSize=17;fillColor=#f8cecc;fontStyle=1" parent="nzwPwrHAnZGIBoWtu1ZI-1" vertex="1">
                    <mxGeometry x="620" y="360" width="330" height="50" as="geometry"/>
                </mxCell>
                <mxCell id="nzwPwrHAnZGIBoWtu1ZI-3" value="AWS requires a credit card to sign up" style="rounded=0;whiteSpace=wrap;html=1;strokeColor=#b85450;fontSize=17;fillColor=#f8cecc;fontStyle=1" parent="nzwPwrHAnZGIBoWtu1ZI-1" vertex="1">
                    <mxGeometry x="620" y="430" width="330" height="50" as="geometry"/>
                </mxCell>
                <mxCell id="nzwPwrHAnZGIBoWtu1ZI-5" style="edgeStyle=orthogonalEdgeStyle;rounded=0;orthogonalLoop=1;jettySize=auto;html=1;exitX=0.5;exitY=1;exitDx=0;exitDy=0;fontSize=17;" parent="nzwPwrHAnZGIBoWtu1ZI-1" target="nzwPwrHAnZGIBoWtu1ZI-6" edge="1">
                    <mxGeometry relative="1" as="geometry">
                        <mxPoint x="785" y="480" as="sourcePoint"/>
                    </mxGeometry>
                </mxCell>
                <mxCell id="nzwPwrHAnZGIBoWtu1ZI-6" value="Everything we are doing fits into the free tier (you should not be charged any money)&amp;nbsp;" style="rounded=0;whiteSpace=wrap;html=1;strokeColor=#b85450;fontSize=14;fillColor=#f8cecc;fontStyle=1" parent="nzwPwrHAnZGIBoWtu1ZI-1" vertex="1">
                    <mxGeometry x="620" y="500" width="330" height="50" as="geometry"/>
                </mxCell>
                <mxCell id="nzwPwrHAnZGIBoWtu1ZI-7" value="I don't guarantee that you won't be charged" style="text;html=1;strokeColor=none;fillColor=none;align=center;verticalAlign=middle;whiteSpace=wrap;rounded=0;fontSize=14;" parent="nzwPwrHAnZGIBoWtu1ZI-1" vertex="1">
                    <mxGeometry x="712.5" y="560" width="145" height="20" as="geometry"/>
                </mxCell>
            </root>
        </mxGraphModel>
    </diagram>
    <diagram id="27izrSjci4KY2z-OZx3g" name="07 - git">
        <mxGraphModel dx="1216" dy="648" grid="1" gridSize="10" guides="1" tooltips="1" connect="1" arrows="1" fold="1" page="1" pageScale="1" pageWidth="1920" pageHeight="1200" math="0" shadow="0">
            <root>
                <mxCell id="UJGncA2GV0OB2iXZvcXf-0"/>
                <mxCell id="UJGncA2GV0OB2iXZvcXf-1" parent="UJGncA2GV0OB2iXZvcXf-0"/>
                <mxCell id="_T4RrZneAiBmfMa-CgN5-0" value="Git/Github Steps" style="rounded=0;whiteSpace=wrap;html=1;fillColor=#dae8fc;strokeColor=#6c8ebf;fontStyle=1;fontSize=21;" parent="UJGncA2GV0OB2iXZvcXf-1" vertex="1">
                    <mxGeometry x="600" y="220" width="540" height="40" as="geometry"/>
                </mxCell>
                <mxCell id="_T4RrZneAiBmfMa-CgN5-1" value="Create a repo on Github" style="rounded=0;whiteSpace=wrap;html=1;fontSize=16;strokeColor=#919191;" parent="UJGncA2GV0OB2iXZvcXf-1" vertex="1">
                    <mxGeometry x="600" y="270" width="540" height="50" as="geometry"/>
                </mxCell>
                <mxCell id="_T4RrZneAiBmfMa-CgN5-2" value="Create a local git repo, set up .gitignore and remotes" style="rounded=0;whiteSpace=wrap;html=1;fontSize=16;strokeColor=#919191;" parent="UJGncA2GV0OB2iXZvcXf-1" vertex="1">
                    <mxGeometry x="600" y="330" width="540" height="50" as="geometry"/>
                </mxCell>
                <mxCell id="_T4RrZneAiBmfMa-CgN5-3" value="Push code (quick test)" style="rounded=0;whiteSpace=wrap;html=1;fontSize=16;strokeColor=#919191;" parent="UJGncA2GV0OB2iXZvcXf-1" vertex="1">
                    <mxGeometry x="600" y="390" width="540" height="50" as="geometry"/>
                </mxCell>
                <mxCell id="_T4RrZneAiBmfMa-CgN5-6" value="Set up the webpack production config" style="rounded=0;whiteSpace=wrap;html=1;fontSize=16;strokeColor=#919191;" parent="UJGncA2GV0OB2iXZvcXf-1" vertex="1">
                    <mxGeometry x="600" y="450" width="540" height="50" as="geometry"/>
                </mxCell>
                <mxCell id="_T4RrZneAiBmfMa-CgN5-7" value="Set up the CI/CD pipeline (executed through github)" style="rounded=0;whiteSpace=wrap;html=1;fontSize=16;strokeColor=#919191;" parent="UJGncA2GV0OB2iXZvcXf-1" vertex="1">
                    <mxGeometry x="600" y="510" width="540" height="50" as="geometry"/>
                </mxCell>
            </root>
        </mxGraphModel>
    </diagram>
    <diagram id="fccCSZ4LbEhHku3QgD-a" name="08 - gha">
        <mxGraphModel dx="1124" dy="648" grid="1" gridSize="10" guides="1" tooltips="1" connect="1" arrows="1" fold="1" page="1" pageScale="1" pageWidth="1920" pageHeight="1200" math="0" shadow="0">
            <root>
                <mxCell id="8jyqbkL1C9ZK-OuquY72-0"/>
                <mxCell id="8jyqbkL1C9ZK-OuquY72-1" parent="8jyqbkL1C9ZK-OuquY72-0"/>
                <mxCell id="8jyqbkL1C9ZK-OuquY72-2" value="Github Repo" style="rounded=0;whiteSpace=wrap;html=1;strokeColor=#919191;fontSize=19;fontStyle=1" parent="8jyqbkL1C9ZK-OuquY72-1" vertex="1">
                    <mxGeometry x="620" y="320" width="240" height="40" as="geometry"/>
                </mxCell>
                <mxCell id="8jyqbkL1C9ZK-OuquY72-3" value="" style="rounded=0;whiteSpace=wrap;html=1;strokeColor=#919191;fontSize=19;fontStyle=1" parent="8jyqbkL1C9ZK-OuquY72-1" vertex="1">
                    <mxGeometry x="620" y="360" width="240" height="120" as="geometry"/>
                </mxCell>
                <mxCell id="8jyqbkL1C9ZK-OuquY72-11" style="edgeStyle=orthogonalEdgeStyle;rounded=0;orthogonalLoop=1;jettySize=auto;html=1;exitX=1;exitY=0.5;exitDx=0;exitDy=0;fontSize=13;" parent="8jyqbkL1C9ZK-OuquY72-1" source="8jyqbkL1C9ZK-OuquY72-4" target="8jyqbkL1C9ZK-OuquY72-10" edge="1">
                    <mxGeometry relative="1" as="geometry"/>
                </mxCell>
                <mxCell id="8jyqbkL1C9ZK-OuquY72-4" value="Push code" style="rounded=0;whiteSpace=wrap;html=1;strokeColor=#666666;fontSize=13;fillColor=#f5f5f5;fontColor=#333333;fontStyle=2" parent="8jyqbkL1C9ZK-OuquY72-1" vertex="1">
                    <mxGeometry x="450" y="370" width="120" height="30" as="geometry"/>
                </mxCell>
                <mxCell id="8jyqbkL1C9ZK-OuquY72-12" style="edgeStyle=orthogonalEdgeStyle;rounded=0;orthogonalLoop=1;jettySize=auto;html=1;exitX=1;exitY=0.5;exitDx=0;exitDy=0;fontSize=13;" parent="8jyqbkL1C9ZK-OuquY72-1" source="8jyqbkL1C9ZK-OuquY72-6" target="8jyqbkL1C9ZK-OuquY72-10" edge="1">
                    <mxGeometry relative="1" as="geometry"/>
                </mxCell>
                <mxCell id="8jyqbkL1C9ZK-OuquY72-6" value="Create pull request" style="rounded=0;whiteSpace=wrap;html=1;strokeColor=#666666;fontSize=13;fillColor=#f5f5f5;fontColor=#333333;fontStyle=2" parent="8jyqbkL1C9ZK-OuquY72-1" vertex="1">
                    <mxGeometry x="450" y="400" width="120" height="30" as="geometry"/>
                </mxCell>
                <mxCell id="8jyqbkL1C9ZK-OuquY72-14" style="edgeStyle=orthogonalEdgeStyle;rounded=0;orthogonalLoop=1;jettySize=auto;html=1;exitX=1;exitY=0.5;exitDx=0;exitDy=0;entryX=0;entryY=0.5;entryDx=0;entryDy=0;fontSize=13;" parent="8jyqbkL1C9ZK-OuquY72-1" source="8jyqbkL1C9ZK-OuquY72-7" target="8jyqbkL1C9ZK-OuquY72-10" edge="1">
                    <mxGeometry relative="1" as="geometry"/>
                </mxCell>
                <mxCell id="8jyqbkL1C9ZK-OuquY72-7" value="Every 15 mins" style="rounded=0;whiteSpace=wrap;html=1;strokeColor=#666666;fontSize=13;fillColor=#f5f5f5;fontColor=#333333;fontStyle=2" parent="8jyqbkL1C9ZK-OuquY72-1" vertex="1">
                    <mxGeometry x="450" y="430" width="120" height="30" as="geometry"/>
                </mxCell>
                <mxCell id="8jyqbkL1C9ZK-OuquY72-15" style="edgeStyle=orthogonalEdgeStyle;rounded=0;orthogonalLoop=1;jettySize=auto;html=1;exitX=1;exitY=0.5;exitDx=0;exitDy=0;entryX=0;entryY=0.5;entryDx=0;entryDy=0;fontSize=13;" parent="8jyqbkL1C9ZK-OuquY72-1" source="8jyqbkL1C9ZK-OuquY72-8" target="8jyqbkL1C9ZK-OuquY72-10" edge="1">
                    <mxGeometry relative="1" as="geometry"/>
                </mxCell>
                <mxCell id="8jyqbkL1C9ZK-OuquY72-8" value="Create issue" style="rounded=0;whiteSpace=wrap;html=1;strokeColor=#666666;fontSize=13;fillColor=#f5f5f5;fontColor=#333333;fontStyle=2" parent="8jyqbkL1C9ZK-OuquY72-1" vertex="1">
                    <mxGeometry x="450" y="460" width="120" height="30" as="geometry"/>
                </mxCell>
                <mxCell id="8jyqbkL1C9ZK-OuquY72-16" style="edgeStyle=orthogonalEdgeStyle;rounded=0;orthogonalLoop=1;jettySize=auto;html=1;exitX=1;exitY=0.5;exitDx=0;exitDy=0;entryX=0;entryY=0.5;entryDx=0;entryDy=0;fontSize=13;" parent="8jyqbkL1C9ZK-OuquY72-1" source="8jyqbkL1C9ZK-OuquY72-9" target="8jyqbkL1C9ZK-OuquY72-10" edge="1">
                    <mxGeometry relative="1" as="geometry"/>
                </mxCell>
                <mxCell id="8jyqbkL1C9ZK-OuquY72-9" value="Close issue" style="rounded=0;whiteSpace=wrap;html=1;strokeColor=#666666;fontSize=13;fillColor=#f5f5f5;fontColor=#333333;fontStyle=2" parent="8jyqbkL1C9ZK-OuquY72-1" vertex="1">
                    <mxGeometry x="450" y="490" width="120" height="30" as="geometry"/>
                </mxCell>
                <mxCell id="8jyqbkL1C9ZK-OuquY72-18" style="edgeStyle=orthogonalEdgeStyle;rounded=0;orthogonalLoop=1;jettySize=auto;html=1;exitX=0.5;exitY=1;exitDx=0;exitDy=0;fontSize=13;" parent="8jyqbkL1C9ZK-OuquY72-1" source="8jyqbkL1C9ZK-OuquY72-10" target="8jyqbkL1C9ZK-OuquY72-17" edge="1">
                    <mxGeometry relative="1" as="geometry"/>
                </mxCell>
                <mxCell id="8jyqbkL1C9ZK-OuquY72-10" value="Event Occured!" style="rounded=0;whiteSpace=wrap;html=1;strokeColor=#6c8ebf;fontSize=13;fillColor=#dae8fc;fontStyle=1" parent="8jyqbkL1C9ZK-OuquY72-1" vertex="1">
                    <mxGeometry x="630" y="370" width="220" height="30" as="geometry"/>
                </mxCell>
                <mxCell id="8jyqbkL1C9ZK-OuquY72-17" value="Run all workflows associated with this event" style="rounded=0;whiteSpace=wrap;html=1;strokeColor=#6c8ebf;fontSize=13;fillColor=#dae8fc;fontStyle=1" parent="8jyqbkL1C9ZK-OuquY72-1" vertex="1">
                    <mxGeometry x="630" y="420" width="220" height="40" as="geometry"/>
                </mxCell>
                <mxCell id="8jyqbkL1C9ZK-OuquY72-21" value="Events" style="text;html=1;strokeColor=none;fillColor=none;align=center;verticalAlign=middle;whiteSpace=wrap;rounded=0;fontSize=13;fontStyle=2" parent="8jyqbkL1C9ZK-OuquY72-1" vertex="1">
                    <mxGeometry x="490" y="350" width="40" height="20" as="geometry"/>
                </mxCell>
                <mxCell id="g5CwMUwEzabmCwvVzP0P-0" value="...many others" style="rounded=0;whiteSpace=wrap;html=1;strokeColor=#666666;fontSize=13;fillColor=#f5f5f5;fontColor=#333333;fontStyle=2" parent="8jyqbkL1C9ZK-OuquY72-1" vertex="1">
                    <mxGeometry x="450" y="520" width="120" height="30" as="geometry"/>
                </mxCell>
            </root>
        </mxGraphModel>
    </diagram>
    <diagram name="09 - workflow" id="q19JJgpx96n1u7joJIrE">
        <mxGraphModel dx="1124" dy="648" grid="1" gridSize="10" guides="1" tooltips="1" connect="1" arrows="1" fold="1" page="1" pageScale="1" pageWidth="1920" pageHeight="1200" background="none" math="0" shadow="0">
            <root>
                <mxCell id="kXCnNNd6yUoBEn6Ae9Qe-0"/>
                <mxCell id="kXCnNNd6yUoBEn6Ae9Qe-1" parent="kXCnNNd6yUoBEn6Ae9Qe-0"/>
                <mxCell id="kXCnNNd6yUoBEn6Ae9Qe-2" value="Workflow For Deploying Container" style="rounded=0;whiteSpace=wrap;html=1;strokeColor=#919191;fontSize=19;fontStyle=1" parent="kXCnNNd6yUoBEn6Ae9Qe-1" vertex="1">
                    <mxGeometry x="620" y="320" width="340" height="30" as="geometry"/>
                </mxCell>
                <mxCell id="kXCnNNd6yUoBEn6Ae9Qe-3" value="" style="rounded=0;whiteSpace=wrap;html=1;strokeColor=#919191;fontSize=19;fontStyle=1" parent="kXCnNNd6yUoBEn6Ae9Qe-1" vertex="1">
                    <mxGeometry x="620" y="350" width="340" height="230" as="geometry"/>
                </mxCell>
                <mxCell id="kXCnNNd6yUoBEn6Ae9Qe-14" style="edgeStyle=orthogonalEdgeStyle;rounded=0;orthogonalLoop=1;jettySize=auto;html=1;exitX=0.5;exitY=1;exitDx=0;exitDy=0;fontSize=13;" parent="kXCnNNd6yUoBEn6Ae9Qe-1" source="kXCnNNd6yUoBEn6Ae9Qe-15" target="kXCnNNd6yUoBEn6Ae9Qe-16" edge="1">
                    <mxGeometry relative="1" as="geometry"/>
                </mxCell>
                <mxCell id="kXCnNNd6yUoBEn6Ae9Qe-15" value="Whenever code is pushed to the master/main branch&lt;br&gt;&lt;i&gt;and&lt;/i&gt;&lt;br&gt;this commit contains a change to the 'container' folder" style="rounded=0;whiteSpace=wrap;html=1;fontSize=11;fontStyle=1;fillColor=#f5f5f5;fontColor=#333333;strokeColor=#666666;" parent="kXCnNNd6yUoBEn6Ae9Qe-1" vertex="1">
                    <mxGeometry x="630" y="360" width="320" height="40" as="geometry"/>
                </mxCell>
                <mxCell id="kXCnNNd6yUoBEn6Ae9Qe-21" style="edgeStyle=orthogonalEdgeStyle;rounded=0;orthogonalLoop=1;jettySize=auto;html=1;exitX=0.5;exitY=1;exitDx=0;exitDy=0;entryX=0.5;entryY=0;entryDx=0;entryDy=0;fontSize=11;" parent="kXCnNNd6yUoBEn6Ae9Qe-1" source="kXCnNNd6yUoBEn6Ae9Qe-16" target="kXCnNNd6yUoBEn6Ae9Qe-18" edge="1">
                    <mxGeometry relative="1" as="geometry"/>
                </mxCell>
                <mxCell id="kXCnNNd6yUoBEn6Ae9Qe-16" value="Change into the &lt;i&gt;container&lt;/i&gt;&amp;nbsp;folder" style="rounded=0;whiteSpace=wrap;html=1;strokeColor=#666666;fontSize=11;fillColor=#f5f5f5;fontStyle=1;fontColor=#333333;" parent="kXCnNNd6yUoBEn6Ae9Qe-1" vertex="1">
                    <mxGeometry x="630" y="420" width="320" height="26" as="geometry"/>
                </mxCell>
                <mxCell id="kXCnNNd6yUoBEn6Ae9Qe-22" style="edgeStyle=orthogonalEdgeStyle;rounded=0;orthogonalLoop=1;jettySize=auto;html=1;exitX=0.5;exitY=1;exitDx=0;exitDy=0;entryX=0.5;entryY=0;entryDx=0;entryDy=0;fontSize=11;" parent="kXCnNNd6yUoBEn6Ae9Qe-1" source="kXCnNNd6yUoBEn6Ae9Qe-18" target="kXCnNNd6yUoBEn6Ae9Qe-19" edge="1">
                    <mxGeometry relative="1" as="geometry"/>
                </mxCell>
                <mxCell id="kXCnNNd6yUoBEn6Ae9Qe-18" value="Install dependencies" style="rounded=0;whiteSpace=wrap;html=1;strokeColor=#666666;fontSize=11;fillColor=#f5f5f5;fontStyle=1;fontColor=#333333;" parent="kXCnNNd6yUoBEn6Ae9Qe-1" vertex="1">
                    <mxGeometry x="630" y="461" width="320" height="26" as="geometry"/>
                </mxCell>
                <mxCell id="kXCnNNd6yUoBEn6Ae9Qe-23" style="edgeStyle=orthogonalEdgeStyle;rounded=0;orthogonalLoop=1;jettySize=auto;html=1;exitX=0.5;exitY=1;exitDx=0;exitDy=0;fontSize=11;" parent="kXCnNNd6yUoBEn6Ae9Qe-1" source="kXCnNNd6yUoBEn6Ae9Qe-19" target="kXCnNNd6yUoBEn6Ae9Qe-20" edge="1">
                    <mxGeometry relative="1" as="geometry"/>
                </mxCell>
                <mxCell id="kXCnNNd6yUoBEn6Ae9Qe-19" value="Create a production build using webpack" style="rounded=0;whiteSpace=wrap;html=1;strokeColor=#666666;fontSize=11;fillColor=#f5f5f5;fontStyle=1;fontColor=#333333;" parent="kXCnNNd6yUoBEn6Ae9Qe-1" vertex="1">
                    <mxGeometry x="630" y="503" width="320" height="26" as="geometry"/>
                </mxCell>
                <mxCell id="kXCnNNd6yUoBEn6Ae9Qe-20" value="Upload the result to AWS S3" style="rounded=0;whiteSpace=wrap;html=1;strokeColor=#666666;fontSize=11;fillColor=#f5f5f5;fontStyle=1;fontColor=#333333;" parent="kXCnNNd6yUoBEn6Ae9Qe-1" vertex="1">
                    <mxGeometry x="630" y="544" width="320" height="26" as="geometry"/>
                </mxCell>
                <mxCell id="WCuyYZYoGWwmFKjWWlsI-0" value="" style="shape=curlyBracket;whiteSpace=wrap;html=1;rounded=1;fontSize=11;" parent="kXCnNNd6yUoBEn6Ae9Qe-1" vertex="1">
                    <mxGeometry x="590" y="420" width="35" height="150" as="geometry"/>
                </mxCell>
                <mxCell id="WCuyYZYoGWwmFKjWWlsI-1" value="Commands executed in a virtual machine hosted by Github" style="text;html=1;strokeColor=none;fillColor=none;align=right;verticalAlign=middle;whiteSpace=wrap;rounded=0;fontSize=11;" parent="kXCnNNd6yUoBEn6Ae9Qe-1" vertex="1">
                    <mxGeometry x="480" y="476.5" width="110" height="37" as="geometry"/>
                </mxCell>
            </root>
        </mxGraphModel>
    </diagram>
    <diagram id="MNwZ0J-KOYLSn6IJXTY1" name="10 - flow">
        <mxGraphModel dx="1216" dy="648" grid="1" gridSize="10" guides="1" tooltips="1" connect="1" arrows="1" fold="1" page="1" pageScale="1" pageWidth="1920" pageHeight="1200" math="0" shadow="0">
            <root>
                <mxCell id="MyS2acF3rVDEaGv9vF0M-0"/>
                <mxCell id="MyS2acF3rVDEaGv9vF0M-1" parent="MyS2acF3rVDEaGv9vF0M-0"/>
                <mxCell id="Gpv9G50uwAYpYkfL84Uh-7" value="Each team develops features on git branches named something like 'container-dev'" style="rounded=0;whiteSpace=wrap;html=1;fontSize=13;align=center;strokeColor=#919191;" parent="MyS2acF3rVDEaGv9vF0M-1" vertex="1">
                    <mxGeometry x="720" y="330" width="390" height="40" as="geometry"/>
                </mxCell>
                <mxCell id="Gpv9G50uwAYpYkfL84Uh-8" value="" style="endArrow=classic;html=1;fontSize=18;" parent="MyS2acF3rVDEaGv9vF0M-1" edge="1">
                    <mxGeometry width="50" height="50" relative="1" as="geometry">
                        <mxPoint x="710" y="330" as="sourcePoint"/>
                        <mxPoint x="710" y="620" as="targetPoint"/>
                    </mxGeometry>
                </mxCell>
                <mxCell id="Gpv9G50uwAYpYkfL84Uh-10" value="Feature complete and ready for deployment? Push branch to github" style="rounded=0;whiteSpace=wrap;html=1;fontSize=13;align=center;strokeColor=#919191;" parent="MyS2acF3rVDEaGv9vF0M-1" vertex="1">
                    <mxGeometry x="720" y="380" width="390" height="40" as="geometry"/>
                </mxCell>
                <mxCell id="Gpv9G50uwAYpYkfL84Uh-11" value="Create a pull request to merge into master/main" style="rounded=0;whiteSpace=wrap;html=1;fontSize=13;align=center;strokeColor=#919191;" parent="MyS2acF3rVDEaGv9vF0M-1" vertex="1">
                    <mxGeometry x="720" y="430" width="390" height="40" as="geometry"/>
                </mxCell>
                <mxCell id="Gpv9G50uwAYpYkfL84Uh-12" value="Other engineers review" style="rounded=0;whiteSpace=wrap;html=1;fontSize=13;align=center;strokeColor=#919191;" parent="MyS2acF3rVDEaGv9vF0M-1" vertex="1">
                    <mxGeometry x="720" y="480" width="390" height="40" as="geometry"/>
                </mxCell>
                <mxCell id="Gpv9G50uwAYpYkfL84Uh-13" value="When ready to deploy, merge the PR" style="rounded=0;whiteSpace=wrap;html=1;fontSize=13;align=center;strokeColor=#919191;" parent="MyS2acF3rVDEaGv9vF0M-1" vertex="1">
                    <mxGeometry x="720" y="530" width="390" height="40" as="geometry"/>
                </mxCell>
                <mxCell id="Gpv9G50uwAYpYkfL84Uh-14" value="Workflow detects a change to the master/main branch, deployment runs!" style="rounded=0;whiteSpace=wrap;html=1;fontSize=13;align=center;strokeColor=#919191;" parent="MyS2acF3rVDEaGv9vF0M-1" vertex="1">
                    <mxGeometry x="720" y="580" width="390" height="40" as="geometry"/>
                </mxCell>
            </root>
        </mxGraphModel>
    </diagram>
</mxfile>